<?xml version="1.0" standalone="no"?>
<!DOCTYPE svg PUBLIC "-//W3C//DTD SVG 20010904//EN"
 "http://www.w3.org/TR/2001/REC-SVG-20010904/DTD/svg10.dtd">
<svg version="1.0" xmlns="http://www.w3.org/2000/svg"
 width="399.000000pt" height="399.000000pt" viewBox="0 0 399.000000 399.000000"
 preserveAspectRatio="xMidYMid meet">

<g transform="translate(0.000000,399.000000) scale(0.100000,-0.100000)"
fill="#000000" stroke="none">
<path d="M1725 3984 c-352 -52 -696 -197 -965 -407 -96 -75 -253 -230 -330
-327 -196 -246 -334 -540 -401 -855 -22 -101 -24 -134 -24 -395 0 -261 2 -294
24 -395 168 -788 767 -1393 1541 -1559 437 -94 887 -40 1288 154 997 481 1414
1685 928 2675 -274 557 -766 943 -1380 1082 -101 23 -135 25 -381 28 -148 2
-283 1 -300 -1z m-530 -1296 c34 -15 47 -41 97 -191 47 -142 117 -305 179
-414 50 -88 135 -183 165 -183 48 1 49 5 52 250 4 268 -3 311 -58 403 -45 74
-49 98 -20 127 19 19 33 20 278 20 141 0 262 -4 268 -8 31 -20 34 -55 34 -345
0 -283 1 -295 21 -321 25 -32 70 -35 116 -6 62 38 202 236 338 482 47 84 95
162 106 173 18 18 35 20 186 23 182 4 219 -4 230 -46 17 -68 -107 -304 -334
-635 -59 -86 -70 -118 -56 -150 6 -12 70 -96 143 -187 198 -247 266 -366 244
-428 -16 -45 -45 -52 -217 -52 -195 0 -204 3 -289 113 -228 291 -333 387 -426
387 -56 0 -62 -21 -62 -232 0 -206 -5 -229 -54 -250 -51 -22 -227 -16 -319 10
-203 58 -423 215 -589 421 -198 245 -367 590 -422 863 -23 112 -21 142 10 167
25 19 40 21 190 21 105 0 172 -4 189 -12z"/>
</g>
</svg>
